<?xml version="1.0" encoding="UTF-8" standalone="no"?>
<svg
   version="1.0"
   width="512.000000pt"
   height="512.000000pt"
   viewBox="0 0 512.000000 512.000000"
   preserveAspectRatio="xMidYMid meet"
   id="svg2"
   sodipodi:docname="lufus.svg"
   inkscape:version="1.4.3 (0d15f75042, 2025-12-25)"
   xmlns:inkscape="http://www.inkscape.org/namespaces/inkscape"
   xmlns:sodipodi="http://sodipodi.sourceforge.net/DTD/sodipodi-0.dtd"
   xmlns="http://www.w3.org/2000/svg"
   xmlns:svg="http://www.w3.org/2000/svg">
  <defs
     id="defs2" />
  <sodipodi:namedview
     id="namedview2"
     pagecolor="#ffffff"
     bordercolor="#000000"
     borderopacity="0.25"
     inkscape:showpageshadow="2"
     inkscape:pageopacity="0.0"
     inkscape:pagecheckerboard="0"
     inkscape:deskcolor="#d1d1d1"
     inkscape:document-units="pt"
     inkscape:zoom="0.84082031"
     inkscape:cx="340.73868"
     inkscape:cy="341.33333"
     inkscape:window-width="1896"
     inkscape:window-height="1004"
     inkscape:window-x="0"
     inkscape:window-y="0"
     inkscape:window-maximized="1"
     inkscape:current-layer="svg2" />
  <g
     transform="translate(0.000000,512.000000) scale(0.100000,-0.100000)"
     fill="#000000"
     stroke="none"
     id="g2">
    <path
       d="M2365 5114 c-363 -37 -636 -113 -930 -258 -272 -134 -460 -268 -679 -484 -396 -391 -644 -885 -733 -1462 -21 -142 -25 -528 -5 -665 59 -412 189 -763 406 -1095 88 -134 189 -257 319 -389 213 -215 413 -359 692 -497 257 -127 507 -203 810 -246 118 -17 512 -17 630 0 598 85 1094 331 1502 743 403 408 641 895 725 1484 17 118 17 512 0 630 -96 677 -409 1241 -927 1671 -336 279 -790 477 -1255 549 -101 15 -467 28 -555 19z m632 -850 c112 -64 203 -120 203 -125 0 -5 -180 -322 -401 -704 -221 -382 -399 -701 -396 -707 2 -7 183 -116 401 -242 218 -125 398 -231 400 -235 3 -4 -43 -91 -102 -194 -79 -138 -111 -185 -122 -181 -40 15 -1230 708 -1230 717 0 5 76 141 168 301 93 160 323 560 513 888 189 329 348 598 354 598 5 0 101 -52 212 -116z m-725 -2100 c282 -163 516 -299 521 -303 9 -9 -590 -1047 -603 -1044 -5 2 -241 136 -524 300 l-515 297 17 31 c10 16 146 252 302 523 156 270 285 492 286 492 1 0 233 -133 516 -296z"
       id="path1" />
    <path
       d="M1641 2148 c-74 -128 -196 -340 -272 -470 -124 -214 -135 -238 -120 -251 20 -17 914 -532 923 -532 13 0 549 938 541 945 -9 9 -930 540 -935 540 -2 0 -64 -105 -137 -232z m204 -240 c41 -24 75 -46 75 -50 0 -6 -76 -141 -116 -205 l-14 -22 -75 42 c-41 23 -75 46 -75 50 0 8 123 226 128 227 1 0 36 -19 77 -42z m464 -269 c39 -22 71 -43 71 -46 0 -11 -124 -223 -131 -223 -7 0 -136 74 -146 83 -6 7 118 227 128 227 4 0 39 -18 78 -41z"
       id="path2" />
  </g>
  <path
     style="fill:#ffffff;stroke-width:1.18931"
     d="M 352.63182,406.28797 C 294.10069,372.49571 241.13804,341.29801 237.31428,338.36005 l -3.09578,-2.37863 15.64938,-27.35424 c 28.15815,-49.21888 103.45937,-179.25974 112.21407,-193.78722 4.70677,-7.81039 9.06861,-14.37098 9.69296,-14.5791 1.20068,-0.400225 45.73661,24.72384 51.01623,28.77979 l 3.09625,2.37863 -38.24045,66.60163 c -50.60104,88.12946 -68.00708,119.44449 -67.3473,121.16386 0.54721,1.426 33.12003,21.06941 80.2021,48.36677 13.90012,8.05905 25.27294,15.16781 25.27294,15.79726 0,3.22665 -25.66214,47.28201 -27.9489,47.98112 -0.65412,0.19999 -20.9914,-11.06889 -45.19396,-25.04195 z"
     id="path3"
     transform="scale(0.75)" />
  <path
     style="fill:#ffffff;stroke-width:1.18931"
     d="m 283.05691,568.00459 c -3.59768,-2.14394 -33.836,-19.58439 -67.19628,-38.75655 -33.36028,-19.17216 -60.83604,-35.00186 -61.05725,-35.1771 -0.22121,-0.17524 12.69681,-22.97247 28.70671,-50.66052 45.68475,-79.00868 50.57584,-87.22672 51.75715,-86.96283 1.04052,0.23245 77.50723,44.11272 117.66191,67.52007 9.97538,5.81494 18.13705,10.97649 18.13705,11.47012 0,2.06934 -48.68874,87.4163 -69.79835,122.35021 -4.54538,7.52206 -9.03055,13.77508 -9.96703,13.89558 -0.93647,0.1205 -4.64623,-1.53503 -8.24391,-3.67898 z m 17.37026,-20.98528 c 17.19785,-28.52763 59.63907,-103.35892 61.42214,-108.29796 0.54289,-1.5038 -7.98259,-6.95032 -39.347,-25.13694 -60.68708,-35.18932 -84.05673,-48.46555 -85.29751,-48.45726 -0.6192,0.004 -1.97608,1.47591 -3.01528,3.27061 -1.0392,1.79471 -15.69145,27.07913 -32.56055,56.18761 -35.21405,60.7636 -37.32323,64.74172 -35.68901,67.31328 1.28454,2.02132 17.63489,11.7305 80.22685,47.64041 23.20963,13.3157 42.74412,24.0439 43.40998,23.84044 0.66587,-0.20344 5.54854,-7.56554 10.85038,-16.36019 z"
     id="path4"
     transform="scale(0.75)" />
  <path
     style="fill:#ffffff;stroke-width:1.18931"
     d="m 229.28719,459.0311 c -4.38961,-2.63376 -8.30758,-5.3169 -8.7066,-5.96253 -0.6601,-1.06806 5.97313,-14.12992 12.7783,-25.16248 l 2.72009,-4.40981 9.21719,5.3423 c 5.06945,2.93826 9.21719,5.95112 9.21719,6.69524 0,1.78428 -15.4139,28.30083 -16.44621,28.29243 -0.43937,-0.004 -4.39035,-2.16139 -8.77996,-4.79515 z"
     id="path5"
     transform="scale(0.75)" />
  <path
     style="fill:#ffffff;stroke-width:1.18931"
     d="m 289.3184,493.34617 -8.60494,-4.96679 4.30587,-7.81338 c 2.36823,-4.29736 6.15411,-10.90506 8.41306,-14.68378 l 4.10719,-6.87039 3.75983,2.25392 c 2.0679,1.23966 6.3328,3.73125 9.47755,5.53689 4.15494,2.38566 5.51782,3.8039 4.98634,5.1889 -1.80134,4.69423 -15.41182,26.33083 -16.56058,26.32638 -0.70366,-0.003 -5.1516,-2.24001 -9.88432,-4.97175 z"
     id="path6"
     transform="scale(0.75)" />
</svg>
